<svg width="136" height="90" viewBox="0 0 136 90" fill="none" xmlns="http://www.w3.org/2000/svg">
<g id="Vector">
<path d="M14.5078 60.7217C9.99424 60.7217 6.4479 59.9482 3.86874 58.4012C1.28958 56.9186 0 54.7914 0 52.0196C0 49.1833 0.838226 46.5727 2.51468 44.1876C4.19113 41.7381 6.35118 39.6432 8.99482 37.9027C11.7029 36.0979 14.5078 34.712 17.4093 33.745C20.3754 32.7137 23.1157 32.198 25.6304 32.198C26.92 32.198 27.5648 32.3914 27.5648 32.7781C27.5648 33.3583 26.8877 33.6484 25.5337 33.6484C23.1479 33.6484 20.5365 34.2285 17.6995 35.3888C14.9269 36.5491 12.4444 38.1606 10.2522 40.2233C8.51122 41.7704 7.1894 43.3497 6.2867 44.9612C5.44847 46.5082 5.02936 47.9586 5.02936 49.3122C5.02936 51.3105 5.9643 52.9865 7.83419 54.3402C9.70408 55.6294 12.5089 56.274 16.2487 56.274C18.441 56.274 20.6655 56.1128 22.9223 55.7905C25.179 55.4038 27.2101 54.9848 29.0155 54.5335C30.8854 54.0823 32.304 53.7278 33.2711 53.4699C35.6569 52.6964 38.0426 51.7617 40.4283 50.6659C42.8785 49.5701 45.0708 48.3453 47.0052 46.9917C48.9395 45.5735 50.3581 44.1554 51.2608 42.7373C51.7766 41.9637 52.1312 41.2225 52.3247 40.5134C52.5826 39.8043 52.7115 39.1275 52.7115 38.4829C52.7115 36.678 51.9056 35.1632 50.2936 33.9384C48.6816 32.6492 46.6183 31.4889 44.1036 30.4576C41.5889 29.4262 38.9131 28.4593 36.076 27.5568C33.2389 26.5899 30.563 25.5908 28.0483 24.5594C25.5337 23.5281 23.4703 22.3678 21.8584 21.0786C20.2464 19.7249 19.4404 18.1134 19.4404 16.244C19.4404 14.1168 20.2142 12.2153 21.7616 10.5393C23.3736 8.79885 25.4047 7.28403 27.8549 5.99482C30.3696 4.64115 33.0455 3.54532 35.8825 2.70734C38.7196 1.80489 41.4277 1.12806 44.0069 0.676837C46.586 0.225612 48.7139 0 50.3903 0C57.483 0 61.0293 1.77266 61.0293 5.31799C61.0293 6.73612 60.449 8.37986 59.2884 10.2492C58.7726 11.2161 58.0311 12.1508 57.0639 13.0532C56.0967 13.8912 55.3552 14.3102 54.8394 14.3102C54.4525 14.3102 54.259 14.0846 54.259 13.6334C54.259 13.44 54.6137 13.0532 55.3229 12.4731C56.0322 11.8285 56.7415 11.055 57.4508 10.1525C58.16 9.25008 58.5147 8.34763 58.5147 7.44518C58.5147 6.09151 57.7409 5.06014 56.1934 4.35108C54.7104 3.64202 52.7438 3.28749 50.2936 3.28749C49.133 3.28749 47.4565 3.48087 45.2642 3.86763C43.0719 4.18993 40.6862 4.73784 38.1071 5.51137C35.5279 6.28489 33.0455 7.31626 30.6597 8.60547C26.2107 11.055 23.9862 13.1499 23.9862 14.8904C23.9862 16.1796 25.2435 17.4043 27.7582 18.5646C29.6281 19.4026 31.7881 20.2728 34.2383 21.1753C36.6885 22.0777 39.171 23.0446 41.6856 24.076C44.2003 25.1073 46.5216 26.2676 48.6494 27.5568C50.8417 28.8461 52.5826 30.2964 53.8722 31.9079C55.2262 33.455 55.9033 35.2276 55.9033 37.2259C55.9033 39.9332 54.4202 42.705 51.4542 45.5413C49.133 47.733 46.4248 49.7635 43.3299 51.6328C40.2993 53.5022 37.0754 55.1137 33.658 56.4674C30.3051 57.821 26.9844 58.8524 23.696 59.5615C20.4076 60.335 17.3448 60.7217 14.5078 60.7217Z" fill="black"/>
<path d="M64.5905 29.0072C63.6234 28.7494 62.5272 28.2337 61.3021 27.4602C60.077 26.6222 59.0131 25.5908 58.1104 24.3661C57.2077 23.0768 56.7563 21.6587 56.7563 20.1117C56.7563 19.4026 56.8853 18.6935 57.1432 17.9845C57.1432 17.92 57.1432 17.6944 57.1432 17.3076C57.2077 16.9209 57.2722 16.5986 57.3367 16.3407C58.0459 13.1177 59.6901 10.4748 62.2693 8.41209C64.8485 6.28489 68.0079 4.64115 71.7477 3.48087C75.4875 2.32058 79.3885 1.61151 83.4506 1.35367C84.2244 1.28921 84.9981 1.25698 85.7719 1.25698C86.5456 1.25698 87.3194 1.25698 88.0931 1.25698C92.6066 1.25698 97.0879 1.54705 101.537 2.1272C105.986 2.70734 110.016 3.28748 113.627 3.86763C117.302 4.38331 120.204 4.67339 122.331 4.73784C124.137 2.86849 125.459 1.83713 126.297 1.64374C126.49 1.57928 126.78 1.54705 127.167 1.54705C127.877 1.54705 128.521 1.74043 129.102 2.1272C129.682 2.4495 129.972 2.93295 129.972 3.57755C129.972 4.1577 129.714 4.70561 129.198 5.2213C128.747 5.67252 128.038 6.22043 127.071 6.86504C126.103 7.50964 125.169 8.3154 124.266 9.28231C122.976 10.5715 121.816 12.0219 120.784 13.6334C119.752 15.2449 119.236 16.7919 119.236 18.2745C119.236 19.3704 119.494 20.305 120.01 21.0786C120.139 21.2075 120.204 21.3364 120.204 21.4653C120.204 21.981 119.946 22.2389 119.43 22.2389C118.979 22.2389 118.495 21.981 117.979 21.4653C117.463 20.8207 117.205 19.4348 117.205 17.3076C117.205 16.0184 117.334 14.6325 117.592 13.1499C117.85 11.6673 118.302 10.3137 118.946 9.08893C119.204 8.6377 119.559 8.12202 120.01 7.54187C120.526 6.89727 120.913 6.41382 121.171 6.09151C116.528 6.02705 111.821 5.76921 107.05 5.31799C102.278 4.86677 97.5715 4.64116 92.929 4.64116C90.7368 4.64116 88.2866 4.80231 85.5784 5.12461C82.8703 5.38245 80.0977 5.83367 77.2606 6.47828C74.4236 7.12288 71.7799 8.05756 69.3297 9.28231C66.8795 10.4426 64.784 11.893 63.043 13.6334C61.3021 15.3738 60.1737 17.4688 59.6579 19.9183C59.5934 20.1761 59.5289 20.4017 59.4645 20.5951C59.4645 20.7885 59.4645 20.9819 59.4645 21.1753C59.4645 22.4 59.8191 23.4314 60.5284 24.2694C61.3021 25.1073 62.1726 25.8164 63.1398 26.3966C64.1069 26.9122 64.8485 27.3957 65.3643 27.8469C65.8156 28.1048 66.0413 28.3626 66.0413 28.6204C66.0413 28.8783 65.8801 29.0394 65.5577 29.1039C65.2998 29.1684 64.9774 29.1361 64.5905 29.0072ZM74.1657 60.0449C73.9722 60.0449 73.5853 59.9804 73.005 59.8515C72.4247 59.7226 71.8767 59.5615 71.3608 59.3681C70.845 59.1747 70.5548 58.9491 70.4904 58.6912C70.2969 57.4665 70.5871 55.7261 71.3608 53.4699C72.1991 51.1494 73.263 48.6032 74.5525 45.8314C75.9066 43.0596 77.2929 40.2878 78.7114 37.516C80.1944 34.7442 81.5485 32.2625 82.7736 30.0708C83.9987 27.8147 84.9014 26.1065 85.4817 24.9462C85.9976 23.8504 86.2555 22.9479 86.2555 22.2389C86.2555 21.9166 86.2232 21.6909 86.1587 21.562C86.1587 21.3686 86.1265 21.2075 86.062 21.0786C86.191 20.305 86.6746 19.2737 87.5128 17.9845C88.351 16.6953 89.3827 15.406 90.6078 14.1168C91.8329 12.8276 93.1225 11.764 94.4765 10.926C95.8951 10.0236 97.2491 9.57238 98.5387 9.57238C98.9256 9.57238 99.6026 9.73353 100.57 10.0558C101.537 10.3137 102.407 10.7649 103.181 11.4095C103.955 12.0541 104.277 12.8921 104.148 13.9235C103.697 13.6012 103.31 13.44 102.988 13.44C101.505 13.44 99.8928 14.1491 98.1518 15.5672C96.4109 16.9853 94.6055 18.8869 92.7356 21.2719C90.9302 23.657 89.1248 26.2676 87.3194 29.1039C85.5784 31.9402 83.9342 34.8086 82.3867 37.7094C80.8392 40.5456 79.4852 43.1885 78.3246 45.638C77.1639 48.023 76.2612 49.9568 75.6164 51.4394C75.3585 52.084 75.1651 52.6642 75.0361 53.1799C74.9072 53.6956 74.8427 54.1145 74.8427 54.4368C74.8427 55.3393 75.1651 55.7905 75.8099 55.7905C76.2612 55.7905 76.7448 55.6294 77.2606 55.3071C77.7765 54.9203 78.2601 54.4691 78.7114 53.9534C79.4207 53.1154 80.0655 52.3419 80.6458 51.6328C81.2261 50.8593 81.7419 50.537 82.1933 50.6659C82.2578 50.7304 82.29 50.8271 82.29 50.956C82.29 51.3427 82.0966 51.794 81.7097 52.3097C81.3228 52.8253 81.0972 53.1154 81.0327 53.1799C80.5168 53.8245 79.8721 54.6947 79.0983 55.7905C78.389 56.8863 77.6153 57.8533 76.7771 58.6912C75.9388 59.5937 75.0684 60.0449 74.1657 60.0449Z" fill="black"/>
<path d="M106.802 59.7548C106.464 59.8032 106.125 59.8274 105.787 59.8274C105.448 59.8274 105.11 59.8274 104.771 59.8274C101.724 59.8274 99.1855 59.3197 97.1544 58.3045C95.1717 57.3376 93.6726 56.0806 92.657 54.5335C91.6898 52.9381 91.2062 51.2702 91.2062 49.5298C91.2062 47.3543 91.9316 45.2271 93.3824 43.1482C94.8815 41.0694 97.0335 39.4981 99.8384 38.4345C101.483 37.8061 103.054 37.4193 104.553 37.2743C106.101 37.1292 107.527 37.0567 108.833 37.0567C110.139 37.0084 111.227 36.9358 112.097 36.8391C110.937 35.8239 109.752 34.5911 108.543 33.1407C107.334 31.642 106.318 30.0225 105.496 28.282C104.674 26.5416 104.263 24.8253 104.263 23.1332C104.263 22.3597 104.36 21.6104 104.553 20.8852C104.747 20.16 105.085 19.4832 105.569 18.8547C106.101 18.1295 106.923 17.5252 108.035 17.0417C109.196 16.5099 110.453 16.099 111.807 15.8089C113.21 15.5189 114.491 15.3738 115.652 15.3738C117.151 15.3738 118.626 15.7364 120.077 16.4616C121.576 17.1868 122.785 18.1053 123.704 19.2173C124.091 18.7338 124.526 18.2987 125.009 17.9119C125.493 17.5252 126.001 17.3076 126.533 17.2593C126.629 17.2109 126.774 17.1868 126.968 17.1868C127.355 17.1868 127.669 17.2835 127.911 17.4768C128.201 17.6219 128.346 17.8394 128.346 18.1295C128.346 18.3712 128.201 18.613 127.911 18.8547C127.717 19.1448 127.355 19.459 126.823 19.7974C126.339 20.1358 125.831 20.5709 125.299 21.1027C124.622 21.7312 124.018 22.4564 123.486 23.2783C122.954 24.0518 122.688 24.8495 122.688 25.6714C122.688 26.1548 122.833 26.6141 123.123 27.0492C123.172 27.0976 123.196 27.1701 123.196 27.2668C123.196 27.5085 123.051 27.6294 122.761 27.6294C122.519 27.6294 122.277 27.5085 122.035 27.2668C121.793 26.9284 121.673 26.2032 121.673 25.0912C121.673 24.4144 121.745 23.7134 121.89 22.9882C122.035 22.2147 122.277 21.5137 122.616 20.8852C122.664 20.8368 122.688 20.7885 122.688 20.7401C122.736 20.6435 122.785 20.5709 122.833 20.5226C122.059 19.6524 120.971 18.8547 119.569 18.1295C118.215 17.4043 116.812 17.0417 115.362 17.0417C114.83 17.0417 114.298 17.1142 113.766 17.2593C112.122 17.5977 110.985 18.3712 110.356 19.5799C109.728 20.7885 109.413 22.1663 109.413 23.7134C109.413 25.1154 109.607 26.5899 109.994 28.137C110.429 29.684 110.961 31.1102 111.59 32.4155C112.218 33.7209 112.847 34.7845 113.476 35.6063C114.056 36.3799 114.346 36.9358 114.346 37.2743C114.346 37.661 113.911 37.9269 113.04 38.072C110.816 38.3137 108.64 38.8213 106.512 39.5948C104.432 40.3684 102.764 41.0694 101.507 41.6979C99.2822 42.8098 97.6138 44.1635 96.5016 45.7589C95.3893 47.3543 94.8332 48.9255 94.8332 50.4725C94.8332 52.5514 95.752 54.3885 97.5897 55.9839C99.4273 57.5309 102.039 58.3045 105.424 58.3045C105.762 58.3045 106.101 58.3045 106.439 58.3045C106.778 58.3045 107.116 58.2803 107.455 58.232C110.405 57.9419 113.21 57.2409 115.869 56.1289C118.578 55.017 120.971 53.4216 123.051 51.3427C125.13 49.2156 126.654 46.5082 127.621 43.2207C127.863 42.5439 128.008 41.8429 128.056 41.1177C128.153 40.3925 128.201 39.7157 128.201 39.0872C128.201 38.4104 128.153 37.8061 128.056 37.2743C128.008 36.7425 127.911 36.3557 127.766 36.114C126.363 36.9358 124.888 37.7577 123.341 38.5796C121.842 39.3531 120.464 40.1508 119.206 40.9727C118.529 41.3594 117.61 42.0846 116.45 43.1482C115.337 44.1635 114.346 45.2754 113.476 46.484C112.605 47.6927 112.17 48.8046 112.17 49.8199C112.17 50.545 112.46 51.1252 113.04 51.5603C113.427 51.8504 113.621 52.1404 113.621 52.4305C113.621 52.5756 113.5 52.6481 113.258 52.6481C113.065 52.6481 112.871 52.5997 112.678 52.503C112.049 52.3097 111.565 51.802 111.227 50.9802C110.937 50.1583 110.792 49.2156 110.792 48.152C110.792 46.6533 111.082 45.3238 111.662 44.1635C112.194 43.1482 112.944 42.278 113.911 41.5528C114.926 40.7793 116.135 39.9816 117.538 39.1597C119.279 38.1445 121.141 37.1534 123.123 36.1865C125.106 35.2196 126.968 34.301 128.709 33.4308C130.45 32.5122 131.876 31.6179 132.989 30.7476C134.101 29.8291 134.657 28.9105 134.657 27.9919C134.657 27.8469 134.657 27.7019 134.657 27.5568C134.657 27.4118 134.609 27.2668 134.512 27.1217C134.512 27.0734 134.488 27.0492 134.439 27.0492C134.439 27.0009 134.439 26.9525 134.439 26.9042C134.439 26.7108 134.512 26.6141 134.657 26.6141C134.899 26.6141 135.116 26.7833 135.31 27.1217C135.503 27.5568 135.6 28.0403 135.6 28.5721C135.6 29.8774 134.947 31.1102 133.641 32.2705C132.336 33.4308 130.716 34.5669 128.781 35.6789C129.313 36.259 129.894 37.1534 130.522 38.362C131.151 39.5707 131.465 40.8035 131.465 42.0604C131.465 42.2538 131.465 42.4472 131.465 42.6406C131.465 42.7856 131.441 42.9548 131.393 43.1482C130.909 45.9522 129.797 48.3695 128.056 50.4C126.363 52.3822 124.308 54.0501 121.89 55.4038C119.472 56.7091 116.933 57.7002 114.274 58.377C111.662 59.1022 109.172 59.5615 106.802 59.7548Z" fill="black"/>
<path d="M13.5648 81.2202C12.4364 81.2202 11.5498 81.0268 10.905 80.64C10.2602 80.2694 9.93782 79.7376 9.93782 79.0446C9.93782 78.3356 10.1474 77.6829 10.5665 77.0866C10.9856 76.4743 11.5256 75.9505 12.1865 75.5154C12.8636 75.0642 13.5648 74.7177 14.2901 74.476C15.0317 74.2181 15.7167 74.0892 16.3454 74.0892C16.6678 74.0892 16.829 74.1376 16.829 74.2343C16.829 74.3793 16.6598 74.4518 16.3212 74.4518C15.7248 74.4518 15.072 74.5969 14.3627 74.8869C13.6695 75.177 13.0489 75.5799 12.5009 76.0956C12.0656 76.4823 11.7352 76.8771 11.5095 77.28C11.2999 77.6668 11.1952 78.0294 11.1952 78.3678C11.1952 78.8674 11.4289 79.2864 11.8964 79.6248C12.3638 79.9471 13.065 80.1082 14 80.1082C14.5481 80.1082 15.1042 80.0679 15.6684 79.9874C16.2326 79.8907 16.7403 79.7859 17.1917 79.6731C17.6592 79.5603 18.0138 79.4717 18.2556 79.4072C18.852 79.2138 19.4485 78.9802 20.0449 78.7062C20.6574 78.4322 21.2055 78.1261 21.6891 77.7876C22.1727 77.4331 22.5273 77.0786 22.753 76.724C22.882 76.5307 22.9706 76.3453 23.019 76.1681C23.0835 75.9908 23.1157 75.8216 23.1157 75.6604C23.1157 75.2092 22.9142 74.8305 22.5112 74.5243C22.1082 74.202 21.5924 73.912 20.9637 73.6541C20.3351 73.3963 19.6661 73.1545 18.9568 72.9289C18.2475 72.6872 17.5786 72.4374 16.9499 72.1796C16.3212 71.9217 15.8054 71.6317 15.4024 71.3094C14.9994 70.971 14.7979 70.5681 14.7979 70.1007C14.7979 69.5689 14.9914 69.0935 15.3782 68.6745C15.7812 68.2394 16.289 67.8607 16.9015 67.5384C17.5302 67.2 18.1992 66.9261 18.9085 66.7166C19.6177 66.4909 20.2948 66.3217 20.9395 66.2089C21.5843 66.0961 22.1163 66.0397 22.5354 66.0397C24.3086 66.0397 25.1952 66.4829 25.1952 67.3692C25.1952 67.7238 25.0501 68.1347 24.7599 68.602C24.631 68.8438 24.4456 69.0774 24.2038 69.303C23.962 69.5125 23.7766 69.6173 23.6477 69.6173C23.5509 69.6173 23.5026 69.5609 23.5026 69.4481C23.5026 69.3997 23.5912 69.303 23.7686 69.158C23.9459 68.9968 24.1232 68.8035 24.3005 68.5779C24.4778 68.3522 24.5665 68.1266 24.5665 67.901C24.5665 67.5626 24.373 67.3048 23.9862 67.1275C23.6154 66.9502 23.1238 66.8616 22.5112 66.8616C22.2211 66.8616 21.8019 66.9099 21.2539 67.0066C20.7058 67.0872 20.1094 67.2242 19.4646 67.4176C18.8198 67.6109 18.1992 67.8688 17.6028 68.1911C16.4905 68.8035 15.9344 69.3272 15.9344 69.7623C15.9344 70.0846 16.2487 70.3908 16.8774 70.6809C17.3448 70.8904 17.8849 71.1079 18.4974 71.3335C19.11 71.5592 19.7306 71.8009 20.3592 72.0587C20.9879 72.3166 21.5682 72.6066 22.1002 72.9289C22.6482 73.2512 23.0835 73.6138 23.4059 74.0167C23.7444 74.4035 23.9136 74.8466 23.9136 75.3462C23.9136 76.023 23.5429 76.716 22.8014 77.4251C22.2211 77.973 21.544 78.4806 20.7703 78.9479C20.0127 79.4153 19.2067 79.8181 18.3523 80.1566C17.5141 80.495 16.6839 80.7528 15.8618 80.9301C15.0397 81.1235 14.274 81.2202 13.5648 81.2202Z" fill="black"/>
<path d="M26.0613 80.64C25.7711 80.64 25.5051 80.5756 25.2633 80.4466C25.0377 80.3177 24.8684 80.076 24.7556 79.7215C24.7395 79.6731 24.7233 79.6248 24.7072 79.5764C24.7072 79.5281 24.7072 79.4717 24.7072 79.4072C24.7072 79.0849 24.7798 78.682 24.9248 78.1986C25.0699 77.7151 25.2472 77.2478 25.4568 76.7966C25.3601 76.9255 25.2472 77.0866 25.1183 77.28C24.9893 77.4573 24.8039 77.691 24.5621 77.981C24.4977 78.0455 24.4251 78.0777 24.3445 78.0777C24.2317 78.0777 24.1753 78.0133 24.1753 77.8843C24.1753 77.7876 24.2075 77.7071 24.272 77.6426C24.6911 77.1108 25.0619 76.6354 25.3842 76.2164C25.7228 75.7974 25.9726 75.4429 26.1338 75.1528C26.1338 75.1206 26.1822 75.0239 26.2789 74.8627C26.3756 74.6855 26.5046 74.4438 26.6658 74.1376C26.5368 74.1537 26.424 74.1698 26.3272 74.1859C26.2466 74.1859 26.1741 74.1859 26.1096 74.1859C25.9968 74.1859 25.9001 74.1376 25.8195 74.0409C25.7389 73.9442 25.7308 73.8233 25.7953 73.6783C25.8759 73.4527 26.0532 73.3238 26.3272 73.2915C26.6013 73.2593 26.8431 73.2351 27.0526 73.219C27.0688 73.1868 27.101 73.1707 27.1494 73.1707C27.3428 72.8161 27.5282 72.4697 27.7055 72.1312C27.8828 71.7928 28.0279 71.5108 28.1407 71.2852C28.2697 71.0596 28.3342 70.9387 28.3342 70.9226C28.6566 70.4069 28.8661 70.0685 28.9628 69.9074C29.0595 69.7301 29.1885 69.6253 29.3497 69.5931C29.527 69.577 29.7124 69.5851 29.9058 69.6173C30.1154 69.6495 30.2524 69.722 30.3169 69.8348C30.3652 69.8993 30.3894 69.9799 30.3894 70.0766C30.3894 70.2216 30.3572 70.3666 30.2927 70.5117C30.2282 70.6406 30.1637 70.7453 30.0993 70.8259C30.0348 70.9387 29.9461 71.0193 29.8333 71.0676C29.7366 71.0999 29.6479 71.1966 29.5673 71.3577C29.4061 71.6639 29.2288 71.9943 29.0354 72.3488C28.8419 72.7033 28.6404 73.0417 28.4309 73.364L28.721 73.3399C29.1079 73.3076 29.4706 73.2674 29.8091 73.219C30.1637 73.1707 30.5667 73.1545 31.0181 73.1707C31.0987 73.1707 31.1793 73.1868 31.2599 73.219C31.3566 73.2351 31.405 73.2674 31.405 73.3157C31.405 73.3802 31.1954 73.4688 30.7763 73.5816C30.6151 73.6461 30.2605 73.7186 29.7124 73.7992C29.1804 73.8636 28.6324 73.9281 28.0682 73.9925C27.907 74.2987 27.7619 74.5566 27.6329 74.7661C27.504 74.9594 27.4153 75.1045 27.367 75.2012C27.0123 75.9425 26.6899 76.6193 26.3998 77.2317C26.1258 77.8279 25.9726 78.3194 25.9404 78.7062C25.9243 78.7707 25.9162 78.8351 25.9162 78.8996C25.9162 78.9479 25.9162 79.0043 25.9162 79.0688C25.9162 79.7134 26.1258 80.0357 26.5449 80.0357C26.8028 80.0357 27.1332 79.8987 27.5362 79.6248C27.9392 79.3347 28.3503 78.9882 28.7694 78.5853C29.1885 78.1663 29.5673 77.7715 29.9058 77.4009C30.2605 77.0141 30.5023 76.724 30.6312 76.5307C30.6796 76.4823 30.7279 76.4581 30.7763 76.4581C30.8408 76.4581 30.8891 76.4823 30.9214 76.5307C30.9697 76.579 30.9778 76.6435 30.9456 76.724C30.8005 76.998 30.5506 77.3445 30.196 77.7635C29.8575 78.1663 29.4706 78.5773 29.0354 78.9963C28.6163 79.3992 28.2052 79.7456 27.8022 80.0357C27.5926 80.1968 27.3267 80.3338 27.0043 80.4466C26.698 80.5756 26.3837 80.64 26.0613 80.64Z" fill="black"/>
<path d="M29.3155 89.2697C29.1221 89.2213 28.9528 89.173 28.8077 89.1246C28.5015 88.9635 28.2838 88.7782 28.1549 88.5687C28.0259 88.3753 27.9614 88.1658 27.9614 87.9402C27.9614 87.5695 28.0904 87.1666 28.3483 86.7315C28.5901 86.3125 28.9125 85.8774 29.3155 85.4262C29.7185 84.9427 30.2263 84.4512 30.8388 83.9517C31.4675 83.4521 32.1203 82.9687 32.7974 82.5013C33.4744 82.0501 34.0708 81.6553 34.5867 81.3169C34.8607 80.7528 35.1428 80.1485 35.4329 79.5039C35.7392 78.8593 36.0294 78.2389 36.3034 77.6426C36.5775 77.0302 36.8112 76.4743 37.0046 75.9747C37.2142 75.4751 37.3673 75.0884 37.464 74.8144C37.2061 75.1206 36.9079 75.5074 36.5694 75.9747C36.2309 76.4259 35.8601 76.9094 35.4571 77.4251C35.0541 77.9246 34.635 78.4 34.1998 78.8512C33.7807 79.3025 33.3454 79.6731 32.8941 79.9632C32.4427 80.2371 31.9994 80.3741 31.5642 80.3741C30.9194 80.3741 30.4681 80.213 30.2102 79.8907C29.9684 79.5523 29.8475 79.1574 29.8475 78.7062C29.8475 78.3839 29.8878 78.0616 29.9684 77.7393C30.0651 77.417 30.186 77.1189 30.3311 76.8449C30.4278 76.6515 30.5809 76.3937 30.7905 76.0714C31 75.7491 31.2418 75.4187 31.5159 75.0803C31.7899 74.7419 32.0639 74.4599 32.338 74.2343C32.6281 74.0086 32.9022 73.8958 33.1601 73.8958C33.4663 73.8958 33.7001 74.0086 33.8613 74.2343C34.0225 74.4438 34.0386 74.5888 33.9096 74.6694C33.6517 74.8466 33.3293 75.1206 32.9425 75.4912C32.5717 75.8458 32.2009 76.2567 31.8302 76.724C31.7335 76.853 31.6126 77.0544 31.4675 77.3284C31.3385 77.6023 31.2176 77.9004 31.1048 78.2227C30.992 78.5289 30.9355 78.811 30.9355 79.0688C30.9355 79.1816 30.9517 79.2944 30.9839 79.4072C31.0161 79.5039 31.0726 79.5764 31.1532 79.6248C31.2821 79.7215 31.4272 79.7698 31.5884 79.7698C31.8141 79.7698 32.0639 79.6973 32.338 79.5522C32.6281 79.4072 32.9022 79.2219 33.1601 78.9963C34.0628 78.1261 34.8688 77.2156 35.578 76.2648C36.2873 75.314 37.0369 74.3712 37.8267 73.4366C37.8751 73.2754 38.0121 73.1948 38.2378 73.1948C38.4957 73.1948 38.7617 73.2754 39.0357 73.4366C39.3259 73.5816 39.4468 73.7025 39.3984 73.7992C39.2533 74.1215 39.0599 74.5485 38.8181 75.0803C38.5924 75.6121 38.3426 76.1842 38.0685 76.7966C37.7945 77.4089 37.5205 78.0213 37.2464 78.6337C36.9724 79.2299 36.7225 79.7698 36.4969 80.2533C36.6903 80.1566 37.0369 79.9148 37.5366 79.5281C38.0363 79.1413 38.5844 78.674 39.1808 78.1261C39.7772 77.562 40.3172 76.9819 40.8008 76.3856C40.8975 76.2889 40.9701 76.2406 41.0184 76.2406C41.1152 76.2406 41.1635 76.3051 41.1635 76.434C41.1635 76.5468 41.1152 76.6757 41.0184 76.8207C40.7766 77.143 40.4381 77.5217 40.0029 77.9568C39.5838 78.392 39.1244 78.8351 38.6247 79.2864C38.1411 79.7215 37.6655 80.1163 37.1981 80.4708C36.7306 80.8415 36.3276 81.1235 35.9891 81.3169C35.4894 82.3805 35.0058 83.3796 34.5383 84.3143C34.0708 85.2651 33.6437 86.0305 33.2568 86.6107C32.9989 87.0135 32.6845 87.4245 32.3138 87.8435C31.943 88.2625 31.54 88.6089 31.1048 88.8829C30.6696 89.173 30.2102 89.318 29.7266 89.318C29.6621 89.318 29.5976 89.3099 29.5331 89.2938C29.4686 89.2938 29.3961 89.2858 29.3155 89.2697ZM29.388 88.7379C29.517 88.7379 29.6701 88.6976 29.8475 88.617C30.0409 88.5364 30.2424 88.4075 30.452 88.2302C31.0645 87.7307 31.5803 87.1425 31.9994 86.4656C32.4186 85.8049 32.7893 85.1039 33.1117 84.3626C33.4502 83.6213 33.7887 82.9122 34.1273 82.2354C33.4986 82.7027 32.7893 83.2507 31.9994 83.8792C31.2096 84.5238 30.4923 85.1603 29.8475 85.7888C29.4606 86.1756 29.1785 86.5543 29.0012 86.9249C28.8239 87.3117 28.7352 87.6501 28.7352 87.9402C28.7352 88.472 28.9528 88.7379 29.388 88.7379Z" fill="black"/>
<path d="M41.914 80.64C41.237 80.64 40.7615 80.4708 40.4874 80.1324C40.2295 79.794 40.1006 79.375 40.1006 78.8754C40.1006 78.4081 40.2053 77.8199 40.4149 77.1108C40.6406 76.4017 40.9307 75.6363 41.2854 74.8144C41.64 73.9925 42.0188 73.1787 42.4218 72.373C42.8409 71.5511 43.252 70.8017 43.655 70.1249C44.0741 69.432 44.4368 68.876 44.743 68.457C45.0493 68.0541 45.3798 67.6512 45.7344 67.2484C46.089 66.8455 46.484 66.5071 46.9192 66.2331C47.3544 65.9592 47.8461 65.8222 48.3942 65.8222C48.7649 65.8222 49.0793 65.9269 49.3372 66.1364C49.6112 66.3298 49.7482 66.6279 49.7482 67.0308C49.7482 67.192 49.716 67.3773 49.6515 67.5868C49.6031 67.7963 49.5145 68.0138 49.3855 68.2394C48.4022 69.9476 47.2255 71.5269 45.8553 72.9773C44.5012 74.4276 43.0666 75.7733 41.5513 77.0141C41.4869 77.2558 41.4224 77.4734 41.3579 77.6668C41.3095 77.8602 41.2692 78.0133 41.237 78.1261C41.2209 78.2066 41.2128 78.2953 41.2128 78.392C41.2128 78.4725 41.2128 78.5531 41.2128 78.6337C41.2128 79.0205 41.2773 79.3589 41.4063 79.6489C41.5352 79.939 41.7528 80.084 42.0591 80.084C42.3493 80.084 42.7039 79.9471 43.123 79.6731C43.5582 79.383 43.9935 79.0366 44.4287 78.6337C44.8639 78.2147 45.2589 77.8118 45.6135 77.4251C45.9681 77.0383 46.218 76.7402 46.3631 76.5307C46.4114 76.4823 46.4598 76.4581 46.5082 76.4581C46.5726 76.4581 46.621 76.4904 46.6532 76.5548C46.7016 76.6193 46.7016 76.6999 46.6532 76.7966C46.492 77.0705 46.2341 77.4089 45.8795 77.8118C45.5249 78.2147 45.1299 78.6256 44.6947 79.0446C44.2595 79.4475 43.8403 79.802 43.4373 80.1082C42.9376 80.4628 42.4299 80.64 41.914 80.64ZM41.8899 76.0472C42.5024 75.6282 43.1391 75.0884 43.8 74.4276C44.4609 73.7508 45.1057 73.0176 45.7344 72.2279C46.3792 71.4383 46.9595 70.6567 47.4753 69.8832C48.0073 69.1097 48.4345 68.4086 48.7569 67.7802C48.8536 67.6029 48.9181 67.4498 48.9503 67.3209C48.9987 67.1758 49.0228 67.0469 49.0228 66.9341C49.0228 66.6279 48.8939 66.4748 48.636 66.4748C48.4103 66.4748 48.1282 66.5957 47.7897 66.8374C46.9192 67.5143 46.1132 68.3845 45.3717 69.4481C44.6302 70.4956 43.9693 71.5994 43.389 72.7597C42.8087 73.92 42.309 75.0158 41.8899 76.0472Z" fill="black"/>
<path d="M48.234 80.7609C47.5086 80.7609 46.8799 80.5917 46.348 80.2533C45.816 79.9148 45.55 79.3992 45.55 78.7062C45.55 78.3356 45.6629 77.8843 45.8886 77.3525C46.0497 76.9819 46.348 76.5548 46.7832 76.0714C47.2184 75.5879 47.7262 75.1206 48.3065 74.6694C48.8868 74.202 49.4752 73.8233 50.0716 73.5333C50.6681 73.2271 51.2081 73.074 51.6917 73.074C51.869 73.074 52.0302 73.0981 52.1753 73.1465C52.4493 73.2432 52.6347 73.3963 52.7314 73.6058C52.8442 73.8153 52.9006 74.0328 52.9006 74.2584C52.9006 74.4679 52.8684 74.6694 52.8039 74.8627C52.7394 75.0561 52.6588 75.2253 52.5621 75.3704C52.272 75.8055 51.8529 76.1922 51.3048 76.5307C50.7728 76.8691 50.2248 77.135 49.6606 77.3284C49.1125 77.5217 48.6611 77.6345 48.3065 77.6668H48.2582C48.0486 77.6668 47.9438 77.6023 47.9438 77.4734C47.9438 77.3928 48.0083 77.3525 48.1373 77.3525C48.5241 77.3203 49.0077 77.143 49.588 76.8207C50.1845 76.4823 50.7084 76.1358 51.1597 75.7813C51.3531 75.6202 51.5788 75.3945 51.8367 75.1045C52.1108 74.8144 52.2478 74.5324 52.2478 74.2584C52.2478 73.9684 52.1108 73.8233 51.8367 73.8233C51.6917 73.8233 51.5385 73.8556 51.3773 73.92C51.2322 73.9845 51.1113 74.0328 51.0146 74.0651C50.5472 74.2907 50.0313 74.6452 49.4671 75.1287C48.9029 75.596 48.3871 76.1278 47.9196 76.724C47.4683 77.3042 47.154 77.8924 46.9766 78.4886C46.9283 78.6176 46.896 78.7465 46.8799 78.8754C46.8638 78.9882 46.8557 79.101 46.8557 79.2138C46.8557 79.6006 46.9766 79.8745 47.2184 80.0357C47.4763 80.1968 47.7826 80.2774 48.1373 80.2774C48.6692 80.2774 49.2173 80.1646 49.7815 79.939C50.3457 79.6973 50.8937 79.3911 51.4257 79.0205C51.9576 78.6498 52.4412 78.255 52.8765 77.836C53.3278 77.4009 53.7066 76.9819 54.0129 76.579C54.0613 76.5146 54.1177 76.4823 54.1822 76.4823C54.2466 76.4662 54.2869 76.4743 54.3031 76.5065C54.3675 76.5226 54.3998 76.571 54.3998 76.6515C54.3998 76.716 54.3837 76.7804 54.3514 76.8449C53.9001 77.4734 53.352 78.0858 52.7072 78.682C52.0785 79.2783 51.3773 79.7779 50.6036 80.1807C49.8459 80.5675 49.0561 80.7609 48.234 80.7609Z" fill="black"/>
<path d="M64.2188 81.1718C64.1059 81.1879 63.9931 81.196 63.8803 81.196C63.7674 81.196 63.6546 81.196 63.5417 81.196C62.5262 81.196 61.6799 81.0268 61.0029 80.6884C60.342 80.3661 59.8423 79.9471 59.5037 79.4314C59.1814 78.8996 59.0202 78.3436 59.0202 77.7635C59.0202 77.0383 59.262 76.3292 59.7455 75.6363C60.2453 74.9433 60.9626 74.4196 61.8975 74.0651C62.4456 73.8556 62.9695 73.7266 63.4692 73.6783C63.985 73.6299 64.4606 73.6058 64.8958 73.6058C65.331 73.5897 65.6937 73.5655 65.9839 73.5333C65.597 73.1948 65.2021 72.7839 64.7991 72.3004C64.3961 71.8009 64.0576 71.261 63.7835 70.6809C63.5095 70.1007 63.3725 69.5286 63.3725 68.9646C63.3725 68.7068 63.4047 68.457 63.4692 68.2153C63.5337 67.9735 63.6465 67.7479 63.8077 67.5384C63.985 67.2967 64.2591 67.0953 64.6298 66.9341C65.0167 66.7568 65.4358 66.6199 65.8872 66.5232C66.3546 66.4265 66.7818 66.3781 67.1687 66.3781C67.6684 66.3781 68.1601 66.499 68.6436 66.7407C69.1434 66.9825 69.5463 67.2886 69.8526 67.6593C69.9816 67.4981 70.1267 67.3531 70.2879 67.2242C70.4491 67.0953 70.6183 67.0227 70.7956 67.0066C70.8279 66.9905 70.8762 66.9825 70.9407 66.9825C71.0697 66.9825 71.1744 67.0147 71.255 67.0792C71.3518 67.1275 71.4001 67.2 71.4001 67.2967C71.4001 67.3773 71.3518 67.4579 71.255 67.5384C71.1906 67.6351 71.0697 67.7399 70.8923 67.8527C70.7312 67.9655 70.5619 68.1105 70.3846 68.2878C70.1589 68.4973 69.9574 68.739 69.7801 69.013C69.6028 69.2708 69.5141 69.5367 69.5141 69.8107C69.5141 69.9718 69.5625 70.1249 69.6592 70.2699C69.6753 70.2861 69.6834 70.3102 69.6834 70.3425C69.6834 70.423 69.635 70.4633 69.5383 70.4633C69.4577 70.4633 69.3771 70.423 69.2965 70.3425C69.2159 70.2297 69.1756 69.9879 69.1756 69.6173C69.1756 69.3917 69.1998 69.158 69.2481 68.9163C69.2965 68.6584 69.3771 68.4248 69.4899 68.2153C69.5061 68.1992 69.5141 68.183 69.5141 68.1669C69.5302 68.1347 69.5463 68.1105 69.5625 68.0944C69.3046 67.8043 68.9419 67.5384 68.4744 67.2967C68.023 67.055 67.5556 66.9341 67.072 66.9341C66.8947 66.9341 66.7173 66.9583 66.54 67.0066C65.9919 67.1194 65.6131 67.3773 65.4036 67.7802C65.194 68.183 65.0892 68.6423 65.0892 69.158C65.0892 69.6253 65.1537 70.1168 65.2827 70.6325C65.4278 71.1482 65.6051 71.6236 65.8146 72.0587C66.0242 72.4938 66.2337 72.8484 66.4433 73.1223C66.6367 73.3802 66.7335 73.5655 66.7335 73.6783C66.7335 73.8072 66.5884 73.8958 66.2982 73.9442C65.5567 74.0248 64.8313 74.194 64.1221 74.4518C63.4289 74.7097 62.8728 74.9433 62.4537 75.1528C61.7122 75.5235 61.156 75.9747 60.7853 76.5065C60.4145 77.0383 60.2291 77.562 60.2291 78.0777C60.2291 78.7707 60.5354 79.383 61.148 79.9148C61.7605 80.4305 62.631 80.6884 63.7594 80.6884C63.8722 80.6884 63.985 80.6884 64.0979 80.6884C64.2107 80.6884 64.3236 80.6803 64.4364 80.6642C65.4197 80.5675 66.3546 80.3338 67.2412 79.9632C68.1439 79.5925 68.9419 79.0607 69.635 78.3678C70.3282 77.6587 70.8359 76.7563 71.1583 75.6604C71.2389 75.4348 71.2873 75.2012 71.3034 74.9594C71.3356 74.7177 71.3518 74.4921 71.3518 74.2826C71.3518 74.057 71.3356 73.8556 71.3034 73.6783C71.2873 73.501 71.255 73.3721 71.2067 73.2915C70.7392 73.5655 70.2476 73.8394 69.7317 74.1134C69.232 74.3712 68.7726 74.6371 68.3535 74.9111C68.1278 75.04 67.8215 75.2817 67.4347 75.6363C67.0639 75.9747 66.7335 76.3453 66.4433 76.7482C66.1531 77.1511 66.0081 77.5217 66.0081 77.8602C66.0081 78.1019 66.1048 78.2953 66.2982 78.4403C66.4272 78.537 66.4917 78.6337 66.4917 78.7304C66.4917 78.7787 66.4514 78.8029 66.3708 78.8029C66.3063 78.8029 66.2418 78.7868 66.1773 78.7546C65.9678 78.6901 65.8066 78.5209 65.6937 78.2469C65.597 77.973 65.5487 77.6587 65.5487 77.3042C65.5487 76.8046 65.6454 76.3615 65.8388 75.9747C66.0161 75.6363 66.266 75.3462 66.5884 75.1045C66.9269 74.8466 67.3299 74.5807 67.7974 74.3068C68.3777 73.9684 68.9983 73.638 69.6592 73.3157C70.3201 72.9934 70.9407 72.6872 71.521 72.3971C72.1013 72.0909 72.5769 71.7928 72.9476 71.5028C73.3184 71.1966 73.5037 70.8904 73.5037 70.5842C73.5037 70.5358 73.5037 70.4875 73.5037 70.4392C73.5037 70.3908 73.4876 70.3425 73.4554 70.2941C73.4554 70.278 73.4473 70.2699 73.4312 70.2699C73.4312 70.2538 73.4312 70.2377 73.4312 70.2216C73.4312 70.1571 73.4554 70.1249 73.5037 70.1249C73.5843 70.1249 73.6569 70.1813 73.7214 70.2941C73.7858 70.4392 73.8181 70.6003 73.8181 70.7776C73.8181 71.2127 73.6005 71.6236 73.1652 72.0104C72.73 72.3971 72.19 72.7758 71.5452 73.1465C71.7225 73.3399 71.916 73.638 72.1255 74.0409C72.3351 74.4438 72.4398 74.8547 72.4398 75.2737C72.4398 75.3381 72.4398 75.4026 72.4398 75.4671C72.4398 75.5154 72.4318 75.5718 72.4157 75.6363C72.2545 76.571 71.8837 77.3767 71.3034 78.0535C70.7392 78.7143 70.0541 79.2702 69.2481 79.7215C68.4421 80.1566 67.5959 80.4869 66.7093 80.7125C65.8388 80.9543 65.0086 81.1074 64.2188 81.1718Z" fill="black"/>
<path d="M84.1673 81.2202C83.0389 81.2202 82.1524 81.0268 81.5076 80.64C80.8628 80.2694 80.5404 79.7376 80.5404 79.0446C80.5404 78.3356 80.7499 77.6829 81.1691 77.0866C81.5882 76.4743 82.1282 75.9505 82.7891 75.5154C83.4661 75.0642 84.1673 74.7177 84.8927 74.476C85.6342 74.2181 86.3193 74.0892 86.948 74.0892C87.2704 74.0892 87.4316 74.1376 87.4316 74.2343C87.4316 74.3793 87.2623 74.4518 86.9238 74.4518C86.3274 74.4518 85.6745 74.5969 84.9653 74.8869C84.2721 75.177 83.6515 75.5799 83.1034 76.0956C82.6682 76.4823 82.3377 76.8771 82.1121 77.28C81.9025 77.6668 81.7977 78.0294 81.7977 78.3678C81.7977 78.8674 82.0315 79.2864 82.4989 79.6248C82.9664 79.9471 83.6676 80.1082 84.6026 80.1082C85.1506 80.1082 85.7068 80.0679 86.271 79.9874C86.8351 79.8907 87.3429 79.7859 87.7943 79.6731C88.2617 79.5603 88.6164 79.4717 88.8582 79.4072C89.4546 79.2138 90.051 78.9802 90.6475 78.7062C91.26 78.4322 91.8081 78.1261 92.2917 77.7876C92.7753 77.4331 93.1299 77.0786 93.3556 76.724C93.4845 76.5307 93.5732 76.3453 93.6216 76.1681C93.686 75.9908 93.7183 75.8216 93.7183 75.6604C93.7183 75.2092 93.5168 74.8305 93.1138 74.5243C92.7108 74.202 92.195 73.912 91.5663 73.6541C90.9376 73.3963 90.2687 73.1545 89.5594 72.9289C88.8501 72.6872 88.1811 72.4374 87.5525 72.1796C86.9238 71.9217 86.408 71.6317 86.005 71.3094C85.602 70.971 85.4005 70.5681 85.4005 70.1007C85.4005 69.5689 85.5939 69.0935 85.9808 68.6745C86.3838 68.2394 86.8916 67.8607 87.5041 67.5384C88.1328 67.2 88.8018 66.9261 89.511 66.7166C90.2203 66.4909 90.8973 66.3217 91.5421 66.2089C92.1869 66.0961 92.7188 66.0397 93.138 66.0397C94.9111 66.0397 95.7977 66.4829 95.7977 67.3692C95.7977 67.7238 95.6526 68.1347 95.3625 68.602C95.2335 68.8438 95.0482 69.0774 94.8064 69.303C94.5646 69.5125 94.3792 69.6173 94.2502 69.6173C94.1535 69.6173 94.1052 69.5609 94.1052 69.4481C94.1052 69.3997 94.1938 69.303 94.3711 69.158C94.5484 68.9968 94.7258 68.8035 94.9031 68.5779C95.0804 68.3522 95.1691 68.1266 95.1691 67.901C95.1691 67.5626 94.9756 67.3048 94.5887 67.1275C94.218 66.9502 93.7263 66.8616 93.1138 66.8616C92.8236 66.8616 92.4045 66.9099 91.8564 67.0066C91.3084 67.0872 90.7119 67.2242 90.0672 67.4176C89.4224 67.6109 88.8018 67.8688 88.2053 68.1911C87.0931 68.8035 86.5369 69.3272 86.5369 69.7623C86.5369 70.0846 86.8513 70.3908 87.4799 70.6809C87.9474 70.8904 88.4874 71.1079 89.1 71.3335C89.7125 71.5592 90.3331 71.8009 90.9618 72.0587C91.5905 72.3166 92.1708 72.6066 92.7027 72.9289C93.2508 73.2512 93.686 73.6138 94.0084 74.0167C94.3469 74.4035 94.5162 74.8466 94.5162 75.3462C94.5162 76.023 94.1454 76.716 93.4039 77.4251C92.8236 77.973 92.1466 78.4806 91.3729 78.9479C90.6152 79.4153 89.8092 79.8181 88.9549 80.1566C88.1167 80.495 87.2865 80.7528 86.4644 80.9301C85.6423 81.1235 84.8766 81.2202 84.1673 81.2202Z" fill="black"/>
<path d="M96.6638 80.64C96.3737 80.64 96.1077 80.5756 95.8659 80.4466C95.6402 80.3177 95.471 80.076 95.3581 79.7215C95.342 79.6731 95.3259 79.6248 95.3098 79.5764C95.3098 79.5281 95.3098 79.4717 95.3098 79.4072C95.3098 79.0849 95.3823 78.682 95.5274 78.1986C95.6725 77.7151 95.8498 77.2478 96.0593 76.7966C95.9626 76.9255 95.8498 77.0866 95.7208 77.28C95.5919 77.4573 95.4065 77.691 95.1647 77.981C95.1002 78.0455 95.0277 78.0777 94.9471 78.0777C94.8343 78.0777 94.7778 78.0133 94.7778 77.8843C94.7778 77.7876 94.8101 77.7071 94.8746 77.6426C95.2937 77.1108 95.6644 76.6354 95.9868 76.2164C96.3253 75.7974 96.5752 75.4429 96.7364 75.1528C96.7364 75.1206 96.7847 75.0239 96.8815 74.8627C96.9782 74.6855 97.1071 74.4438 97.2683 74.1376C97.1394 74.1537 97.0265 74.1698 96.9298 74.1859C96.8492 74.1859 96.7767 74.1859 96.7122 74.1859C96.5994 74.1859 96.5026 74.1376 96.422 74.0409C96.3414 73.9442 96.3334 73.8233 96.3979 73.6783C96.4785 73.4527 96.6558 73.3238 96.9298 73.2915C97.2039 73.2593 97.4456 73.2351 97.6552 73.219C97.6713 73.1868 97.7036 73.1707 97.7519 73.1707C97.9454 72.8161 98.1307 72.4697 98.3081 72.1312C98.4854 71.7928 98.6304 71.5108 98.7433 71.2852C98.8722 71.0596 98.9367 70.9387 98.9367 70.9226C99.2591 70.4069 99.4687 70.0685 99.5654 69.9074C99.6621 69.7301 99.7911 69.6253 99.9523 69.5931C100.13 69.577 100.315 69.5851 100.508 69.6173C100.718 69.6495 100.855 69.722 100.919 69.8348C100.968 69.8993 100.992 69.9799 100.992 70.0766C100.992 70.2216 100.96 70.3666 100.895 70.5117C100.831 70.6406 100.766 70.7453 100.702 70.8259C100.637 70.9387 100.549 71.0193 100.436 71.0676C100.339 71.0999 100.25 71.1966 100.17 71.3577C100.009 71.6639 99.8314 71.9943 99.6379 72.3488C99.4445 72.7033 99.243 73.0417 99.0334 73.364L99.3236 73.3399C99.7105 73.3076 100.073 73.2674 100.412 73.219C100.766 73.1707 101.169 73.1545 101.621 73.1707C101.701 73.1707 101.782 73.1868 101.862 73.219C101.959 73.2351 102.008 73.2674 102.008 73.3157C102.008 73.3802 101.798 73.4688 101.379 73.5816C101.218 73.6461 100.863 73.7186 100.315 73.7992C99.783 73.8636 99.2349 73.9281 98.6708 73.9925C98.5096 74.2987 98.3645 74.5566 98.2355 74.7661C98.1066 74.9594 98.0179 75.1045 97.9695 75.2012C97.6149 75.9425 97.2925 76.6193 97.0024 77.2317C96.7283 77.8279 96.5752 78.3194 96.5429 78.7062C96.5268 78.7707 96.5188 78.8351 96.5188 78.8996C96.5188 78.9479 96.5188 79.0043 96.5188 79.0688C96.5188 79.7134 96.7283 80.0357 97.1474 80.0357C97.4053 80.0357 97.7358 79.8987 98.1388 79.6248C98.5418 79.3347 98.9528 78.9882 99.372 78.5853C99.7911 78.1663 100.17 77.7715 100.508 77.4009C100.863 77.0141 101.105 76.724 101.234 76.5307C101.282 76.4823 101.331 76.4581 101.379 76.4581C101.443 76.4581 101.492 76.4823 101.524 76.5307C101.572 76.579 101.58 76.6435 101.548 76.724C101.403 76.998 101.153 77.3445 100.799 77.7635C100.46 78.1663 100.073 78.5773 99.6379 78.9963C99.2188 79.3992 98.8078 79.7456 98.4048 80.0357C98.1952 80.1968 97.9292 80.3338 97.6068 80.4466C97.3006 80.5756 96.9862 80.64 96.6638 80.64Z" fill="black"/>
<path d="M102.82 80.6642C102.368 80.6642 101.973 80.5594 101.635 80.3499C101.071 80.0115 100.789 79.3992 100.789 78.5128C100.789 78.1422 100.853 77.7151 100.982 77.2317C101.095 76.8288 101.296 76.3937 101.586 75.9263C101.877 75.4429 102.215 74.9836 102.602 74.5485C103.005 74.1134 103.44 73.7589 103.908 73.4849C104.375 73.211 104.843 73.074 105.31 73.074C105.504 73.074 105.673 73.0981 105.818 73.1465C106.011 73.211 106.173 73.3318 106.301 73.5091C106.447 73.6702 106.519 73.8797 106.519 74.1376C106.519 74.4115 106.447 74.5646 106.301 74.5968C106.173 74.6291 106.108 74.5969 106.108 74.5002C106.108 74.4679 106.108 74.4357 106.108 74.4035C106.124 74.3712 106.132 74.3471 106.132 74.331C106.132 74.202 106.092 74.0892 106.011 73.9925C105.947 73.8797 105.818 73.8233 105.624 73.8233C105.367 73.8233 105.044 73.9603 104.657 74.2343C104.287 74.5082 103.9 74.8789 103.497 75.3462C103.11 75.7974 102.763 76.297 102.457 76.8449C102.167 77.3928 101.973 77.9407 101.877 78.4886C101.861 78.5692 101.844 78.6498 101.828 78.7304C101.828 78.7948 101.828 78.8674 101.828 78.9479C101.828 79.3186 101.909 79.6328 102.07 79.8907C102.247 80.1324 102.521 80.2533 102.892 80.2533C103.344 80.2533 103.779 80.084 104.198 79.7456C104.617 79.3911 104.988 78.9721 105.31 78.4886C105.649 78.0052 105.899 77.5781 106.06 77.2075C106.189 76.9174 106.277 76.6676 106.326 76.4581C106.374 76.2486 106.398 76.0714 106.398 75.9263C106.398 75.7974 106.382 75.6846 106.35 75.5879C106.334 75.4912 106.31 75.4107 106.277 75.3462C106.245 75.2495 106.229 75.177 106.229 75.1287C106.229 74.9997 106.277 74.895 106.374 74.8144C106.487 74.7338 106.6 74.6935 106.713 74.6935C106.809 74.6935 106.914 74.7258 107.027 74.7902C107.156 74.8225 107.333 74.8466 107.559 74.8627C107.785 74.8789 108.026 74.8869 108.284 74.8869C108.558 74.8869 108.832 74.8789 109.106 74.8627C109.396 74.8466 109.646 74.8144 109.856 74.7661C109.888 74.7499 109.936 74.7419 110.001 74.7419C110.114 74.7419 110.17 74.7741 110.17 74.8386C110.17 74.903 110.114 74.9594 110.001 75.0078C109.437 75.2656 108.929 75.4026 108.478 75.4187C108.042 75.4348 107.664 75.4429 107.341 75.4429C107.373 75.8458 107.285 76.2809 107.075 76.7482C106.866 77.1994 106.648 77.6023 106.422 77.9568C106.148 78.3597 105.834 78.7707 105.479 79.1897C105.125 79.6087 104.73 79.9632 104.295 80.2533C103.859 80.5272 103.368 80.6642 102.82 80.6642Z" fill="black"/>
<path d="M112.508 80.6884C112.234 80.6884 111.992 80.6239 111.783 80.495C111.573 80.3822 111.428 80.1566 111.347 79.8181C111.299 79.6409 111.275 79.4636 111.275 79.2864C111.275 78.8029 111.396 78.3356 111.637 77.8843C111.895 77.417 112.194 76.9899 112.532 76.6032C112.871 76.2003 113.161 75.8619 113.403 75.5879C113.532 75.459 113.677 75.2898 113.838 75.0803C114.015 74.8708 114.104 74.6613 114.104 74.4518C114.104 74.3229 114.039 74.202 113.91 74.0892C113.781 73.9603 113.548 73.8717 113.209 73.8233C113.016 73.7911 112.83 73.7669 112.653 73.7508C112.492 73.7186 112.323 73.7025 112.145 73.7025C111.694 74.3148 111.251 74.9353 110.815 75.5638C110.396 76.1761 109.945 76.7805 109.461 77.3767C109.348 77.4895 109.252 77.5459 109.171 77.5459C109.074 77.5459 109.026 77.4976 109.026 77.4009C109.026 77.3042 109.074 77.2075 109.171 77.1108C110.042 76.0472 110.791 74.9111 111.42 73.7025C111.339 73.7025 111.218 73.7025 111.057 73.7025C110.896 73.6863 110.767 73.6702 110.67 73.6541C110.557 73.6219 110.469 73.5735 110.404 73.5091C110.34 73.4446 110.308 73.3802 110.308 73.3157C110.308 73.219 110.348 73.1626 110.428 73.1465C110.638 73.082 110.864 72.9853 111.105 72.8564C111.347 72.7275 111.573 72.5583 111.783 72.3488C112.008 72.1232 112.218 71.8895 112.411 71.6478C112.605 71.3899 112.758 71.1966 112.871 71.0676C112.983 70.9871 113.104 70.9468 113.233 70.9468C113.314 70.9468 113.386 70.9709 113.451 71.0193C113.532 71.0676 113.572 71.1402 113.572 71.2368C113.572 71.3497 113.523 71.4947 113.427 71.672C113.282 71.8976 113.12 72.1474 112.943 72.4213C112.782 72.6953 112.629 72.945 112.484 73.1707C112.774 73.1868 113.064 73.2029 113.354 73.219C113.644 73.2351 113.943 73.2432 114.249 73.2432C114.41 73.2432 114.563 73.2432 114.708 73.2432C114.869 73.2271 115.031 73.219 115.192 73.219C115.675 73.219 115.917 73.3399 115.917 73.5816C115.917 73.7428 115.829 73.9442 115.651 74.1859C115.49 74.4115 115.289 74.6613 115.047 74.9353C114.499 75.5638 114.031 76.2245 113.644 76.9174C113.257 77.6104 113 78.1422 112.871 78.5128C112.742 78.8996 112.677 79.1897 112.677 79.383C112.677 79.7698 112.83 79.9632 113.137 79.9632C113.411 79.9632 113.741 79.8262 114.128 79.5522C114.531 79.2783 114.942 78.9479 115.361 78.5612C115.78 78.1583 116.159 77.7715 116.498 77.4009C116.836 77.0141 117.078 76.724 117.223 76.5307C117.255 76.4823 117.304 76.4581 117.368 76.4581C117.432 76.4581 117.489 76.4904 117.537 76.5548C117.586 76.6032 117.586 76.6676 117.537 76.7482C117.36 77.0222 117.102 77.3686 116.764 77.7876C116.425 78.1905 116.046 78.5934 115.627 78.9963C115.208 79.3992 114.797 79.7456 114.394 80.0357C114.184 80.1968 113.894 80.3419 113.523 80.4708C113.169 80.6158 112.83 80.6884 112.508 80.6884Z" fill="black"/>
<path d="M115.904 89.2697C115.711 89.2213 115.541 89.173 115.396 89.1246C115.09 88.9635 114.872 88.7782 114.743 88.5687C114.614 88.3753 114.55 88.1658 114.55 87.9402C114.55 87.5695 114.679 87.1666 114.937 86.7315C115.179 86.3125 115.501 85.8774 115.904 85.4262C116.307 84.9427 116.815 84.4512 117.427 83.9517C118.056 83.4521 118.709 82.9687 119.386 82.5013C120.063 82.0501 120.659 81.6553 121.175 81.3169C121.449 80.7528 121.731 80.1485 122.021 79.5039C122.328 78.8593 122.618 78.2389 122.892 77.6426C123.166 77.0302 123.4 76.4743 123.593 75.9747C123.803 75.4751 123.956 75.0884 124.053 74.8144C123.795 75.1206 123.496 75.5074 123.158 75.9747C122.819 76.4259 122.449 76.9094 122.046 77.4251C121.643 77.9246 121.224 78.4 120.788 78.8512C120.369 79.3025 119.934 79.6731 119.483 79.9632C119.031 80.2371 118.588 80.3741 118.153 80.3741C117.508 80.3741 117.057 80.213 116.799 79.8907C116.557 79.5523 116.436 79.1574 116.436 78.7062C116.436 78.3839 116.476 78.0616 116.557 77.7393C116.654 77.417 116.774 77.1189 116.92 76.8449C117.016 76.6515 117.169 76.3937 117.379 76.0714C117.589 75.7491 117.83 75.4187 118.104 75.0803C118.378 74.7419 118.652 74.4599 118.926 74.2343C119.217 74.0086 119.491 73.8958 119.749 73.8958C120.055 73.8958 120.289 74.0086 120.45 74.2343C120.611 74.4438 120.627 74.5888 120.498 74.6694C120.24 74.8466 119.918 75.1206 119.531 75.4912C119.16 75.8458 118.789 76.2567 118.419 76.724C118.322 76.853 118.201 77.0544 118.056 77.3284C117.927 77.6023 117.806 77.9004 117.693 78.2227C117.58 78.5289 117.524 78.811 117.524 79.0688C117.524 79.1816 117.54 79.2944 117.572 79.4072C117.605 79.5039 117.661 79.5764 117.742 79.6248C117.871 79.7215 118.016 79.7698 118.177 79.7698C118.403 79.7698 118.652 79.6973 118.926 79.5522C119.217 79.4072 119.491 79.2219 119.749 78.9963C120.651 78.1261 121.457 77.2156 122.167 76.2648C122.876 75.314 123.625 74.3712 124.415 73.4366C124.464 73.2754 124.601 73.1948 124.826 73.1948C125.084 73.1948 125.35 73.2754 125.624 73.4366C125.914 73.5816 126.035 73.7025 125.987 73.7992C125.842 74.1215 125.648 74.5485 125.407 75.0803C125.181 75.6121 124.931 76.1842 124.657 76.7966C124.383 77.4089 124.109 78.0213 123.835 78.6337C123.561 79.2299 123.311 79.7698 123.085 80.2533C123.279 80.1566 123.625 79.9148 124.125 79.5281C124.625 79.1413 125.173 78.674 125.769 78.1261C126.366 77.562 126.906 76.9819 127.389 76.3856C127.486 76.2889 127.559 76.2406 127.607 76.2406C127.704 76.2406 127.752 76.3051 127.752 76.434C127.752 76.5468 127.704 76.6757 127.607 76.8207C127.365 77.143 127.027 77.5217 126.591 77.9568C126.172 78.392 125.713 78.8351 125.213 79.2864C124.73 79.7215 124.254 80.1163 123.787 80.4708C123.319 80.8415 122.916 81.1235 122.578 81.3169C122.078 82.3805 121.594 83.3796 121.127 84.3143C120.659 85.2651 120.232 86.0305 119.845 86.6107C119.587 87.0135 119.273 87.4245 118.902 87.8435C118.532 88.2625 118.129 88.6089 117.693 88.8829C117.258 89.173 116.799 89.318 116.315 89.318C116.251 89.318 116.186 89.3099 116.122 89.2938C116.057 89.2938 115.985 89.2858 115.904 89.2697ZM115.977 88.7379C116.106 88.7379 116.259 88.6976 116.436 88.617C116.629 88.5364 116.831 88.4075 117.04 88.2302C117.653 87.7307 118.169 87.1425 118.588 86.4656C119.007 85.8049 119.378 85.1039 119.7 84.3626C120.039 83.6213 120.377 82.9122 120.716 82.2354C120.087 82.7027 119.378 83.2507 118.588 83.8792C117.798 84.5238 117.081 85.1603 116.436 85.7888C116.049 86.1756 115.767 86.5543 115.59 86.9249C115.412 87.3117 115.324 87.6501 115.324 87.9402C115.324 88.472 115.541 88.7379 115.977 88.7379Z" fill="black"/>
</g>
</svg>
